<svg xmlns="http://www.w3.org/2000/svg" viewBox="0 0 512 512" width="512" height="512">
    <defs>
      <linearGradient id="bg" x1="0" y1="0" x2="1" y2="1">
        <stop offset="0" stop-color="#0a1836"/>
        <stop offset=".55" stop-color="#13327d"/>
        <stop offset="1" stop-color="#2560d6"/>
      </linearGradient>
      <radialGradient id="sphere" cx=".38" cy=".33" r=".85">
        <stop offset="0" stop-color="#3f74e0"/>
        <stop offset=".55" stop-color="#183a86"/>
        <stop offset="1" stop-color="#0b1f4b"/>
      </radialGradient>
      <radialGradient id="sheen" cx=".32" cy=".26" r=".9">
        <stop offset="0" stop-color="#ffffff" stop-opacity=".18"/>
        <stop offset=".5" stop-color="#ffffff" stop-opacity="0"/>
      </radialGradient>
      <linearGradient id="wavegrad" x1="0" y1="0" x2="1" y2="0">
        <stop offset="0" stop-color="#8ceaff"/>
        <stop offset="1" stop-color="#8ceaff" stop-opacity=".15"/>
      </linearGradient>
      <clipPath id="squircle"><rect width="512" height="512" rx="114" ry="114"/></clipPath>
    </defs>
    <g clip-path="url(#squircle)">
      <rect width="512" height="512" fill="url(#bg)"/>
      <circle cx="256" cy="256" r="150" fill="url(#sphere)"/>
      <g fill="none" stroke="#cfe0ff" stroke-linecap="round" stroke-linejoin="round">
        <g stroke-width="1.7" stroke-opacity=".5">
          <path d="M 256 397 L 254 395.2 L 252.1 393.3 L 250.1 391.2 L 248.2 389 L 246.2 386.6 L 244.3 384 L 242.4 381.3 L 240.5 378.4 L 238.6 375.4 L 236.8 372.2 L 235 368.9 L 233.1 365.4 L 231.4 361.8 L 229.6 358.1 L 227.9 354.3 L 226.2 350.3 L 224.6 346.3 L 223 342.1 L 221.4 337.8 L 219.9 333.4 L 218.4 328.9 L 217 324.4 L 215.6 319.7 L 214.2 315 L 213 310.2 L 211.7 305.3 L 210.5 300.4 L 209.4 295.4 L 208.3 290.4 L 207.3 285.3 L 206.4 280.2 L 205.5 275 L 204.7 269.9 L 203.9 264.7 L 203.2 259.5 L 202.6 254.3 L 202 249.1 L 201.5 243.9 L 201 238.8 L 200.7 233.6 L 200.4 228.5 L 200.1 223.4 L 199.9 218.4 L 199.8 213.4 L 199.8 208.4 L 199.8 203.5 L 199.9 198.7 L 200.1 194 L 200.4 189.3 L 200.7 184.7 L 201 180.2 L 201.5 175.7 L 202 171.4 L 202.6 167.2 L 203.2 163.1 L 203.9 159.1 L 204.7 155.2 L 205.5 151.5 L 206.4 147.8 L 207.3 144.3 L 208.3 141 L 209.4 137.7 L 210.5 134.7 L 211.7 131.7 L 213 129 L 214.2 126.3 L 215.6 123.9 L 217 121.6 L 218.4 119.4 L 219.9 117.4 L 221.4 115.6 L 223 114 L 224.6 112.5 L 226.2 111.3 L 227.9 110.1 L 229.6 109.2 L 231.4 108.5 L 233.1 107.9 L 235 107.5"/><path d="M 256 397 L 252.3 395.6 L 248.6 394.1 L 244.9 392.4 L 241.2 390.5 L 237.6 388.5 L 233.9 386.3 L 230.3 384 L 226.8 381.5 L 223.2 378.8 L 219.7 376 L 216.3 373.1 L 212.9 370 L 209.5 366.8 L 206.2 363.4 L 203 359.9 L 199.8 356.3 L 196.7 352.6 L 193.7 348.7 L 190.7 344.7 L 187.8 340.7 L 185 336.5 L 182.3 332.2 L 179.7 327.8 L 177.2 323.4 L 174.7 318.8 L 172.4 314.2 L 170.2 309.5 L 168.1 304.7 L 166.1 299.9 L 164.1 295.1 L 162.3 290.1 L 160.7 285.2 L 159.1 280.2 L 157.7 275.2 L 156.3 270.1 L 155.1 265.1 L 154 260 L 153.1 254.9 L 152.3 249.8 L 151.5 244.8 L 151 239.7 L 150.5 234.7 L 150.2 229.6 L 150 224.7 L 149.9 219.7 L 150 214.8 L 150.2 210 L 150.5 205.2 L 151 200.5 L 151.5 195.8 L 152.3 191.2 L 153.1 186.7 L 154 182.3 L 155.1 177.9 L 156.3 173.7 L 157.7 169.6 L 159.1 165.5 L 160.7 161.6 L 162.3 157.8 L 164.1 154.1 L 166.1 150.5 L 168.1 147.1 L 170.2 143.8 L 172.4 140.6 L 174.7 137.6 L 177.2 134.7 L 179.7 132 L 182.3 129.4 L 185 127 L 187.8 124.7 L 190.7 122.6 L 193.7 120.6 L 196.7 118.9 L 199.8 117.2 L 203 115.8 L 206.2 114.5 L 209.5 113.4"/><path d="M 256 397 L 251.1 396.2 L 246.3 395.3 L 241.5 394.2 L 236.6 392.9 L 231.8 391.5 L 227.1 389.9 L 222.4 388.1 L 217.7 386.2 L 213 384.1 L 208.4 381.9 L 203.9 379.5 L 199.4 377 L 195 374.3 L 190.7 371.4 L 186.5 368.5 L 182.3 365.4 L 178.2 362.1 L 174.3 358.7 L 170.4 355.2 L 166.6 351.6 L 162.9 347.9 L 159.4 344 L 156 340.1 L 152.6 336 L 149.5 331.9 L 146.4 327.6 L 143.5 323.3 L 140.7 318.9 L 138.1 314.4 L 135.6 309.8 L 133.2 305.2 L 131 300.5 L 128.9 295.8 L 127 291 L 125.3 286.1 L 123.7 281.3 L 122.3 276.4 L 121.1 271.5 L 120 266.5 L 119 261.5 L 118.3 256.6 L 117.7 251.6 L 117.3 246.7 L 117 241.7 L 116.9 236.8 L 117 231.9 L 117.3 227 L 117.7 222.2 L 118.3 217.4 L 119 212.6 L 120 207.9 L 121.1 203.3 L 122.3 198.7 L 123.7 194.2 L 125.3 189.7 L 127 185.4 L 128.9 181.1 L 131 176.9 L 133.2 172.9 L 135.6 168.9 L 138.1 165 L 140.7 161.2 L 143.5 157.6 L 146.4 154.1 L 149.5 150.7 L 152.6 147.4 L 156 144.3 L 159.4 141.3 L 162.9 138.4"/>
          <path d="M 181 378.1 L 181 377.2 L 181.2 376.3 L 181.4 375.4 L 181.7 374.5 L 182.1 373.6 L 182.6 372.7 L 183.2 371.9 L 183.9 371 L 184.7 370.1 L 185.5 369.3 L 186.5 368.5 L 187.5 367.6 L 188.6 366.8 L 189.8 366 L 191 365.2 L 192.4 364.5 L 193.8 363.7 L 195.3 363 L 196.9 362.3 L 198.5 361.6 L 200.3 360.9 L 202 360.3 L 203.9 359.6 L 205.8 359 L 207.8 358.4 L 209.8 357.9 L 211.9 357.3 L 214.1 356.8 L 216.3 356.3 L 218.5 355.9 L 220.8 355.4 L 223.1 355 L 225.5 354.6 L 227.9 354.3 L 230.3 354 L 232.8 353.7 L 235.3 353.4 L 237.9 353.2 L 240.4 353 L 243 352.8 L 245.6 352.7 L 248.2 352.6 L 250.8 352.5 L 253.4 352.4 L 256 352.4"/><path d="M 126.1 326.5 L 126.2 324.9 L 126.4 323.4 L 126.8 321.8 L 127.4 320.3 L 128.1 318.8 L 128.9 317.2 L 130 315.7 L 131.1 314.2 L 132.5 312.7 L 133.9 311.3 L 135.6 309.8 L 137.3 308.4 L 139.2 307 L 141.3 305.6 L 143.5 304.3 L 145.8 302.9 L 148.3 301.6 L 150.9 300.4 L 153.6 299.1 L 156.5 297.9 L 159.5 296.7 L 162.6 295.6 L 165.8 294.5 L 169.1 293.5 L 172.5 292.4 L 176 291.5 L 179.6 290.5 L 183.4 289.6 L 187.2 288.8 L 191 288 L 195 287.2 L 199.1 286.5 L 203.2 285.9 L 207.3 285.3 L 211.6 284.7 L 215.9 284.2 L 220.2 283.8 L 224.6 283.4 L 229 283 L 233.4 282.7 L 237.9 282.5 L 242.4 282.3 L 246.9 282.2 L 251.5 282.1 L 256 282"/><path d="M 128.9 176.3 L 130 174.8 L 131.1 173.3 L 132.5 171.8 L 133.9 170.3 L 135.6 168.9 L 137.3 167.5 L 139.2 166 L 141.3 164.7 L 143.5 163.3 L 145.8 162 L 148.3 160.7 L 150.9 159.4 L 153.6 158.2 L 156.5 157 L 159.5 155.8 L 162.6 154.7 L 165.8 153.6 L 169.1 152.5 L 172.5 151.5 L 176 150.5 L 179.6 149.6 L 183.4 148.7 L 187.2 147.8 L 191 147 L 195 146.3 L 199.1 145.6 L 203.2 144.9 L 207.3 144.3 L 211.6 143.8 L 215.9 143.3 L 220.2 142.8 L 224.6 142.4 L 229 142.1 L 233.4 141.8 L 237.9 141.5 L 242.4 141.3 L 246.9 141.2 L 251.5 141.1 L 256 141.1"/><path d="M 196.9 118.1 L 198.5 117.4 L 200.3 116.8 L 202 116.1 L 203.9 115.5 L 205.8 114.9 L 207.8 114.3 L 209.8 113.7 L 211.9 113.2 L 214.1 112.7 L 216.3 112.2 L 218.5 111.7 L 220.8 111.3 L 223.1 110.9 L 225.5 110.5 L 227.9 110.1 L 230.3 109.8 L 232.8 109.5 L 235.3 109.3 L 237.9 109 L 240.4 108.8 L 243 108.7 L 245.6 108.5 L 248.2 108.4 L 250.8 108.3 L 253.4 108.3 L 256 108.3"/>
        </g>
        <path d="M 106 256 L 106.1 254.2 L 106.4 252.4 L 106.8 250.6 L 107.5 248.9 L 108.3 247.1 L 109.3 245.3 L 110.5 243.6 L 111.8 241.9 L 113.3 240.1 L 115 238.5 L 116.9 236.8 L 119 235.1 L 121.2 233.5 L 123.6 231.9 L 126.1 230.3 L 128.8 228.8 L 131.6 227.3 L 134.6 225.8 L 137.8 224.4 L 141.1 223 L 144.5 221.7 L 148.1 220.4 L 151.8 219.1 L 155.6 217.9 L 159.6 216.7 L 163.7 215.6 L 167.8 214.5 L 172.1 213.5 L 176.5 212.5 L 181 211.6 L 185.6 210.7 L 190.2 209.9 L 195 209.1 L 199.8 208.4 L 204.7 207.8 L 209.6 207.2 L 214.7 206.7 L 219.7 206.2 L 224.8 205.8 L 230 205.5 L 235.1 205.2 L 240.3 205 L 245.5 204.8 L 250.8 204.7 L 256 204.7" stroke-width="2.1" stroke-opacity=".85"/>
        <path d="M 256 397 L 256 395.1 L 256 393 L 256 390.8 L 256 388.4 L 256 385.9 L 256 383.2 L 256 380.4 L 256 377.4 L 256 374.2 L 256 370.9 L 256 367.5 L 256 363.9 L 256 360.2 L 256 356.4 L 256 352.4 L 256 348.3 L 256 344.2 L 256 339.9 L 256 335.5 L 256 331 L 256 326.4 L 256 321.8 L 256 317 L 256 312.2 L 256 307.3 L 256 302.4 L 256 297.3 L 256 292.3 L 256 287.2 L 256 282 L 256 276.9 L 256 271.7 L 256 266.5 L 256 261.2 L 256 256 L 256 250.8 L 256 245.5 L 256 240.3 L 256 235.1 L 256 230 L 256 224.8 L 256 219.7 L 256 214.7 L 256 209.6 L 256 204.7 L 256 199.8 L 256 195 L 256 190.2 L 256 185.6 L 256 181 L 256 176.5 L 256 172.1 L 256 167.8 L 256 163.7 L 256 159.6 L 256 155.6 L 256 151.8 L 256 148.1 L 256 144.5 L 256 141.1 L 256 137.8 L 256 134.6 L 256 131.6 L 256 128.8 L 256 126.1 L 256 123.6 L 256 121.2 L 256 119 L 256 116.9 L 256 115 L 256 113.3 L 256 111.8 L 256 110.5 L 256 109.3 L 256 108.3 L 256 107.5 L 256 106.8 L 256 106.4 L 256 106.1 L 256 106"   stroke-width="2.1" stroke-opacity=".85"/>
      </g>
      <path d="M 256 106 A 150 150 0 0 0 256 406" fill="none" stroke="#eaf2ff" stroke-width="3.4" stroke-linecap="round" stroke-opacity=".95"/>
      <g fill="none" stroke-linecap="round">
        <path d="M 256 106 A 150 150 0 0 1 256 406" stroke="#eaf2ff" stroke-width="3.4" stroke-opacity=".95"/><path d="M 274.5 80 A 177 177 0 0 1 274.5 432" stroke="url(#wavegrad)" stroke-width="6" stroke-opacity="0.85"/><path d="M 320.3 58.2 A 208 208 0 0 1 320.3 453.8" stroke="url(#wavegrad)" stroke-width="5" stroke-opacity="0.58"/><path d="M 377 46.4 A 242 242 0 0 1 377 465.6" stroke="url(#wavegrad)" stroke-width="4" stroke-opacity="0.4"/><path d="M 443.4 47.9 A 280 280 0 0 1 443.4 464.1" stroke="url(#wavegrad)" stroke-width="3" stroke-opacity="0.26"/>
      </g>
      <rect width="512" height="512" fill="url(#sheen)"/>
    </g></svg>